<?xml version="1.0" encoding="UTF-8"?><svg id="Layer_1" xmlns="http://www.w3.org/2000/svg" viewBox="0 0 1078.05 573.62"><defs><style>.cls-1{fill:#be902f;stroke-width:0px;}</style></defs><path class="cls-1" d="m819.07,573.62c-7.04-4.21-14.16-8.18-20.07-14.11-11.87-11.89-13.45-35.38-3.43-48.88,4.34-5.84,8.37-11.6,15.62-14.08,6.77-2.32,10.53-1.18,14.25,4.96,1.19,1.97,3.02,2.65,4.78,3.64,18.63,10.53,39.41,15.49,59.08,23.28,8.57,3.39,16.06,2.95,24.19,1.9,2.22-.29,4,0,5.88.88,1.73.81,3.91,1.86,5.4.77,5.75-4.24,13.44-3.48,19.1-7.72,14.06-10.54,29.4-9.35,45.55-6.09,19.76,3.99,39.74,7.15,59.85,8.91,7.17.63,14.36.48,21.11,3.43,3.9,1.71,7.3,3.89,7.64,8.75.13,1.87-.24,3.68-2.18,4.16-3.62.91-7.47,2.46-10.96,1.96-9.32-1.34-18.04.83-26.82,3.06-15.9,4.04-31.62,8.74-47.85,11.56-17.03,2.96-32.92,2.84-46.48-10.05-3.84-3.65-8.34-7.46-14.55-4.28-.37.19-1.16.07-1.47-.21-5.42-4.81-12.55-2.04-18.58-4.18-1.51-.54-3.53-.54-5.04-.02-14.22,4.9-29.86,6.1-42.77,14.1-11.86,7.35-25.43,10.82-37.11,18.27h-5.14Zm61.21-37.33c-.4-.64-.51-1.07-.75-1.17-18.88-8.09-37.59-16.56-55.92-25.84-1.06-.54-2.2-1.14-3.32-.08-7.86,7.47-18.14,12.55-19.82,25.45-1.28,9.82,3.06,15.95,9.44,21.8,6.27,5.74,12.82,7.6,20.04,1.54,1.02-.86,2.42-1.27,3.63-1.91,14.98-7.88,30.48-14.56,46.7-19.8Zm158.13,4.81c-4.53-4.39-9.89-2.77-14.24-4.57-13.77-5.68-28.51-7.02-42.95-9.64-11.41-2.07-22.03-.6-31,8.28,3.81.46,7.1.57,10.51-1.35,5.17-2.91,8.54-1.02,9.36,4.87.26,1.85.27,3.78.05,5.63-.56,4.63-3.12,5.82-7.06,3.34-1.2-.75-2.18-2.12-4.27-.79,3.79,2.92,7.76,3.99,12.12,4.02,10.99.08,21.81-1.77,32.62-3.34,11.45-1.67,22.92-3.39,34.86-6.45Z"/><path class="cls-1" d="m0,536.63c5.17-7.1,13-8.83,20.87-9.2,17.3-.8,34.3-3.66,51.33-6.43,11.81-1.92,23.62-3.87,35.43-5.76,5.31-.85,10.19.77,14.86,3.02,5.7,2.74,11.39,5.53,16.92,8.58,4.59,2.53,9.9,2.48,14.68,4.99,3.36,1.77,8.08-2.79,12.66-1.57.62.17,1.55-.39,2-.1,7.1,4.69,12.99.24,19.53-1.96,19.93-6.69,40.26-12.23,58.76-22.62,2.54-1.43,4.75-2.75,6.36-5.53,2.33-4.02,6.3-5.58,11.06-4.23,7.25,2.05,12.08,6.63,16.53,12.79,5.54,7.67,7.69,15.74,8,24.86.49,14.24-6.22,24.51-17.35,32.37-4.04,2.85-8.43,5.2-12.66,7.78h-5.14c-4.88-3.22-10.25-5.43-15.63-7.64-4.73-1.95-9.91-3.35-13.95-6.28-4.81-3.49-10-5.77-15.34-8.01-9.2-3.86-19.12-5.25-28.48-8.51-5.14-1.79-9.97-2.4-15.49-1.23-4.87,1.03-10.16.06-14.52,3.45-.45.35-1.48.47-1.96.21-5.61-3.09-9.77.35-13.23,3.64-13.88,13.21-30.09,14.11-47.74,10.67-13.1-2.56-26.01-5.7-38.88-9.17-10.2-2.76-20.35-6.63-31.11-5.61-6.19.58-11.72-1.26-17.51-2.35v-6.17Zm196.68-.65c20.81,6.59,39.34,15.28,57.31,25.22,1.89,1.04,3.87,1.35,5.92.42,20.13-9.16,24.44-29.38,8.02-43.82-2.7-2.37-5.82-4.31-8.23-6.93-2.42-2.62-4.41-2.07-7.16-.74-12.48,6.04-25.03,11.92-37.6,17.76-5.67,2.64-11.43,5.07-18.27,8.08Zm-156.38,4.74c.91,1.44,2.45,1.24,3.69,1.48,16.62,3.29,33.44,5.37,50.16,8.06,13.96,2.24,25.22-1.44,35.47-10.34,1.59-1.38,3.1-2.28.49-4.18-9.73-7.08-20-11.07-32.53-9.16-17.96,2.75-35.41,7.57-53.08,11.52-1.6.36-3.18,1.09-4.2,2.61Z"/><path class="cls-1" d="m719.38,573.62c-5.76-3.38-12.32-2.12-18.48-2.87-6.41-.78-12.99-.16-19.5-.28-49.13-.91-98.26-.67-147.38-.88-23.78-.1-47.47,1.31-71.17,2.7-3.95.23-7.22-1.95-11.06-1.65-6.13.49-12.34.27-18.43,1.04-16.47,2.08-32.95.8-49.11-1.45-17.49-2.43-35.03-3.19-52.54-4.72-2.17-.19-5.08-.07-5.14-3.02-.06-3.33,3.06-3.35,5.36-3.29,10.94.3,21.89.69,32.82,1.24,23.09,1.16,46.17,1.21,69.26,0,8.88-.46,17.8-.38,26.7-.38,65.58-.04,131.16.14,196.73-.14,19.12-.08,38.23-1.26,57.3-3.19,7.45-.75,15.28-1.08,22.21,3.75,4.76,3.32,5.24,7.52.4,11.14-1.08.81-2.38,1.33-3.59,1.98h-14.39Z"/><path class="cls-1" d="m687.43,330.27c-15.84-.29-28.84-9.73-35.6-24.37-2.94-6.36-4.48-12.38-3.45-19.2.95-6.3,4.22-9.37,10.6-9.49,1.41-.03,2.73.02,3.91-.81,12.89-9.01,25.87-17.84,37.09-29.05,6.81-6.81,13.05-14.48,22.15-18.65,1.59-.73,2.27-2.03,2.21-3.72-.27-6.86,2.66-12.13,8.01-16.21,1.14-.87,1.99-2.05,2.09-3.42.66-9.05,3.84-17.85,3.18-26.99-.82-11.37,3.52-20.33,10.67-28.92,15.08-18.13,30.07-36.4,43.44-55.85,3.77-5.49,6.76-11.47,12.01-15.78,2.96-2.43,6.11-4.47,10.22-3.88,4.29.62,4.91,2.53,4.1,6.76-1.5,7.81-7.32,13.37-9.75,20.73-5.06,15.3-7.86,31.18-12.76,46.5-3.02,9.46-6.44,18.77-10.34,27.91-3.6,8.42-9.36,14.54-18.08,17.88-4.13,1.58-8.07,3.71-11.99,5.8-3.01,1.6-6.12,3.25-6.1,7.48,0,.74-.59,1.91-1.2,2.15-6.68,2.62-7.93,10.02-12.72,14.27-1.44,1.28-2.41,2.99-2.75,4.85-2.81,15.28-9.71,29.97-8.87,45.67.61,11.42-2.36,22.36-2.03,33.6.18,6.16-1.96,10.71-7.68,13.83-8.32,4.55-16.6,8.84-26.36,8.93Zm1.67-10.41c6.08.55,11.87-2.35,17.51-5.74,2.63-1.58,3.41-3.94,3.55-6.91.89-18.96,1.43-37.97,5.61-56.61.26-1.15.85-2.59-.24-3.38-1.2-.87-2.19.4-3.09,1.12-14.95,11.74-30.32,22.92-45.98,33.7-2.28,1.57-3.23,3.15-2.54,5.94,1.31,5.31,2.03,10.79,3.59,16.02,2.81,9.47,11.45,15.83,21.58,15.87Zm109.59-209.66c-2.75.61-4.14,1.67-5.26,2.9-12.26,13.51-24.96,26.57-36.37,40.9-8.12,10.2-8.29,21.19-7.76,32.87.07,1.63.71,2.98,2.48,2,7.78-4.3,17.33-5.94,21.96-14.98,10.33-20.15,17.34-41.55,24.94-63.68Z"/><path class="cls-1" d="m390.14,330.26c-11.66-.66-21.68-5.57-30.76-12.59-2.65-2.05-2.64-5.55-2.67-8.57-.07-7.73-1.62-15.3-2.18-22.95-.61-8.45.86-17-1.16-25.41-2.64-10.97-4.2-22.34-8.18-32.8-2.44-6.43-6.63-12.95-12.91-17.19-1.43-.97-3.21-1.88-3.25-3.73-.09-4.46-3.41-6.02-6.51-7.78-2.67-1.52-5.34-3.25-8.23-4.14-12.86-3.96-19.51-13.37-24.1-25.35-6.15-16.02-10.99-32.38-14.95-49.04-1.82-7.67-3.97-15.26-6.82-22.59-2.33-5.99-6.96-10.83-8.41-17.39-.96-4.36-.07-6.46,4.5-6.87,4.31-.39,7.37,2.06,10.52,4.53,6.82,5.34,9.93,13.39,14.79,20.14,13.6,18.9,28.51,36.74,43.02,54.9,4.94,6.19,7.5,12.83,7.51,20.72,0,6.31-.77,13.11,1.27,18.81,2.23,6.24-.28,14.25,7.4,18.96,3.01,1.85,5.07,6.75,4.67,11.42-.18,2.04-.23,4.23,2.14,5.3,9.13,4.13,15.35,11.83,22.16,18.63,11.23,11.21,24.2,20.05,37.08,29.07,1.17.82,2.49.83,3.9.86,6.45.13,9.77,3.13,10.66,9.39,1.93,13.44-3.83,24-13.06,32.83-7.24,6.93-15.92,11.26-26.45,10.81Zm-1.47-10.4c9.66.04,18.08-5.65,21.21-14.04,2.22-5.96,3.27-12.21,4.33-18.46.37-2.15-.08-3.52-1.89-4.78-16.04-11.12-31.87-22.54-47.2-34.64-.78-.62-1.73-1.52-2.66-.64-.47.45-.52,1.63-.35,2.39,4.41,19.48,4.88,39.35,5.89,59.16.12,2.29,1.3,3.88,3.12,5.02,5.57,3.49,11.35,6.45,17.55,5.98Zm-109.19-209.56c6.51,20.06,13.88,38.96,21.62,57.77,4.8,11.67,14.53,16.12,24.71,20.65,1.51.67,2.86.65,2.86-1.39.02-10.47,1.53-20.85-5.66-30.42-11.74-15.61-25.14-29.66-38.43-43.85-1.13-1.21-2.48-2.31-5.11-2.77Z"/><path class="cls-1" d="m546,23.77c.82,17.08,3.3,33.98,5.72,50.9,1.67,11.67,3.81,23.29,4.5,35.09.32,5.48-.9,10.5-3.5,15.3-2.94,5.41-5.83,10.85-8.56,16.37-2.14,4.35-1.67,9.65-5,13.67-.75.91-.22,2.63.31,3.96,2.47,6.08,2.04,12.02-1.28,17.65-.91,1.54-1.14,2.81-.07,4.22,6.02,7.92,7.07,17.7,9.49,26.83,4.16,15.69,10.92,30.23,17.78,44.78.41.86,1.23,1.63,2.02,2.2,6.52,4.65,7.93,8.15,4.62,15.21-6.45,13.75-18.33,19.75-32.77,21.09-22.21,2.07-34.43-12.01-42.5-30.39-1.17-2.67-.52-5.42.79-7.94,4.27-8.21,6.41-17.81,11.72-25.02,10.99-14.93,13.27-32.8,19.49-49.31,1.29-3.43,1.36-6.86.56-10.56-1.2-5.53.44-11.65-3.47-16.63,3.3-11.61-5.84-18.13-11.04-26.03-5.87-8.91-4.64-18.41-3.58-27.83,2.01-17.92,7.22-35.17,12.2-52.44,1.94-6.74,3.33-13.63,5.08-20.43.62-2.41.55-4.76-.06-7.1-1.39-5.33,1.19-10.12,2.28-15.03.8-3.61,7.34-2.83,10.05,1.37,3.92,6.06,5.21,12.95,5.22,20.1Zm-10.99,175.92c-.69.41-1.14.52-1.22.76-6.57,19.55-15.88,37.85-25.72,55.89-.76,1.4-1.08,2.81-.44,4.41,7.62,19.31,27.49,25.84,42.33,10.81,3.11-3.15,5.65-6.88,8.72-10.07,1.92-1.99,1.75-3.62.69-5.91-4.24-9.16-8.38-18.37-12.4-27.63-4.07-9.35-7.95-18.79-11.95-28.25Zm-2.4-159.87c-4.87,18.49-7.54,37.21-10.7,55.85-2.3,13.52,1.24,24.56,9.65,34.65.91,1.09,1.99,4.17,3.57,1.49,4.35-7.36,10.92-13.66,10.69-23.32-.23-9.8-2.06-19.34-3.34-28.98-1.81-13.56-6.72-26.33-9.86-39.68Z"/><path class="cls-1" d="m911.99,347.76c-6.12-.62-12.24-1.27-18.36-1.86-4.06-.39-8.28-1.3-10.96,3.23-.37.63-1.53,1.31-2.16,1.18-6.93-1.41-11.69,4.2-17.79,5.39-1.73.34-3.24,1.19-4.43,2.45-10.54,11.21-23.43,20.53-31.21,33.91-5.97,10.27-13.87,18.98-20.02,28.98-2.95,4.79-6.63,7.18-12.57,6.97-8.93-.32-18.1.24-25.93-4.68-14.73-9.27-21.69-22.5-19.8-40.34.73-6.9,2.16-13.05,6.77-18.34,4.33-4.98,8.35-5.89,13.96-2.55,1.56.93,2.93,1.32,4.75,1.28,21.16-.46,41.86-4.05,62.33-9.07,4.73-1.16,10.02.2,13.95-1.51,3.88-1.68,5.92-7.08,10.65-8.95,1.54-.61,2.97-1.63,4.69-1.77,3.54-.29,5.52-1.98,7.42-5.22,2.31-3.95,7.23-5.9,9.3-10.49,1.32-2.92,3.67-5.36,5.31-8.15,5.54-9.45,13.52-15.22,24.01-18.76,22.53-7.6,44.99-15.53,66.66-25.36,7.56-3.43,14.67-7.26,23.25-6.88,2.75.12,5.05.86,6.57,3.27,1.09,1.73,1.49,3.67-.04,5.21-2.4,2.4-4.7,5.49-7.67,6.63-13.21,5.06-21.9,15.76-31.43,25.11-13.12,12.85-26.61,25.1-41.81,35.41-4.63,3.14-9.65,5.19-15.42,4.92Zm-77.36,17.91c-2.59-.87-4.55-.28-6.53-.1-13.44,1.24-26.86,2.87-40.33,3.52-18.58.89-20.15,1.89-24.69,19.86-2.54,10.05,3.12,24.79,15.07,27.76,4.21,1.04,8.34,1.58,12.63,1.73,3.73.13,5.95-1.39,7.86-4.5,7.26-11.81,15.06-23.27,23.82-34.03,3.84-4.72,7.9-9.25,12.17-14.24Zm141.07-73.91c-6.28-.94-10.52,2.54-15.36,3.18-14.25,1.89-27.14,8.18-40.74,12.13-13,3.78-20.57,12.76-25.99,24.38-1.1,2.37-.8,3.2,1.9,3.71,12.84,2.43,24.84,1.45,35.19-7.6,2.18-1.91,4.71-3.41,7.04-5.15,12.85-9.61,25.32-19.67,37.95-30.65Z"/><path class="cls-1" d="m285.84,427.82c-7.44,2.02-12.54-2.07-16.39-9.17-1.86-3.42-5.02-6.11-7.03-9.46-10.63-17.67-23.68-33.27-38.77-47.32-7-6.52-15.11-9.92-24.32-11.26-1.57-.23-3.31-.29-4.12-1.69-2.15-3.7-5.56-3.54-9.01-3.23-5.11.47-10.21,1.01-15.29,1.67-7.43.96-14.25-.32-20.51-4.66-14.66-10.17-28.18-21.61-40.58-34.49-6.87-7.14-14.58-13.46-21.87-20.19-1.68-1.55-3.53-2.79-5.71-3.32-5.33-1.3-8.3-5.82-12.36-8.85-1.38-1.02-1.39-2.75-.77-4.26,1.06-2.57,3.01-4.09,5.86-4.32,6.48-.52,12.74.53,18.43,3.57,12.57,6.73,25.89,11.59,39.2,16.5,13.16,4.86,26.3,9.77,39.53,14.44,5.93,2.09,10.46,5.74,13.97,10.78,3.81,5.48,7.66,10.93,11.19,16.59,2.7,4.33,7.18,6.86,10.19,11.06,2.24,3.11,8.33,2.03,11.81,5.1.24.21.78.15.93.38,6.88,10.89,18.97,7.09,28.63,9.93,17.81,5.23,36.22,7.05,54.74,7.69,1.78.06,3.2-.13,4.8-1.09,5.94-3.54,9.8-2.65,14.31,2.63,7.6,8.89,8.35,19.63,6.39,30.08-3.63,19.41-17.58,34.16-43.24,32.88Zm-42.73-62.79c1.09,1.61,1.39,2.22,1.83,2.69,12.46,13.06,23.14,27.55,32.26,43.02,4.05,6.88,8.91,8.3,15.94,7.58,17.14-1.76,25.79-16.48,21.11-31.52-1.32-4.24-3.17-8.32-4.44-12.56-.95-3.17-2.76-3.96-5.95-4.14-11.6-.66-23.17-1.7-34.75-2.67-8.3-.7-16.59-1.52-26-2.38Zm-140.58-74.19c.75,1.41.87,1.94,1.2,2.22,14.53,12.23,29.49,23.89,44.62,35.38,10.74,8.16,22.13,8.87,34.48,6.66,1.49-.27,3.12-.71,2.05-2.5-4.69-7.81-7.6-17-16.86-21.3-11.21-5.21-22.91-9.08-34.67-12.71-9.84-3.04-19.99-5.07-30.83-7.75Z"/><path class="cls-1" d="m877.42,272.77c-8.59-1.12-16.9-5.23-25.35-8.89-1.87-.81-3.58-2.01-5.36-3.02-8.09-4.57-7.94-4.43-14.37,2.12-4.78,4.87-10.38,8.79-16.28,12.27-4.9,2.89-8.98,6.91-12.88,10.92-14.81,15.25-31.05,28.9-46.9,43-10.23,9.1-18.78,19.91-28.16,29.87-2.21,2.35-4.56,4.37-7.92,1.63-2.44-2-3-4.13-.6-6.48,1.59-1.55,3.38-2.9,4.95-4.47,6.39-6.39,13.04-12.44,18.31-19.99,5.96-8.52,12.89-16.34,21.79-22.24,8.23-5.46,12.93-14.71,21.33-20.27,6.06-4.02,11.36-9.24,16.85-14.13,8.69-7.75,14.16-17.93,21.82-26.39,1.4-1.54.74-3.37.22-4.89-4.1-11.83-5.29-24.4-9.17-36.28-.32-.97-.63-1.97-.74-2.98-.21-2.04-.54-4.23,1.67-5.5,1.94-1.11,3.75-.22,5.22.98,6.49,5.28,12.93,10.64,19.34,16.03,3.88,3.26,8.91,5.13,11.49,9.96,1.51,2.82,2.83,5.49,1.22,8.68-1.37,2.7.22,4.41,1.95,6.26,7.63,8.16,16.7,14.67,24.89,22.19.38.35.85.59,1.22.94,2.26,2.15,4.78,4.41,3.71,7.88-1.2,3.87-4.8,2.27-8.26,2.81Zm-14.02-15.96c.27-.38.54-.76.8-1.14-10.56-7.65-17.48-19.55-31.19-25.97,3.14,6.07,2.47,12.86,7.43,15.94,7.19,4.47,15.26,7.52,22.95,11.17Z"/><path class="cls-1" d="m263.22,201.39c-.07.54-.05,1.44-.32,2.23-4.11,11.82-5.04,24.46-9.26,36.25-1.34,3.75-.31,6.21,2.14,9.55,6.39,8.69,12.89,17.11,20.63,24.71,6.76,6.63,14.21,12.36,21.73,17.91,5.49,4.06,7.75,10.65,13.61,14.34,11.47,7.24,19.54,17.85,27.41,28.76,4.97,6.9,11.85,12.3,18.23,18.01,3.74,3.35,3.04,7.35-1.33,8.6-2.53.72-4.27-.73-5.82-2.4-5.24-5.64-10.6-11.18-15.64-17-10.02-11.58-21.72-21.32-33.44-31.04-11.74-9.74-21.54-21.53-33.13-31.45-4.7-4.02-10.24-6.69-14.98-10.61-3.56-2.96-7.51-5.5-9.99-9.47-1.75-2.79-3.39-3.15-6.26-1.6-8.87,4.81-17.91,9.28-27.51,12.54-3.81,1.29-7.56,2.06-11.55,1.9-2.05-.08-4.29.16-5.27-2.22-.97-2.35-.09-4.52,1.55-6.11,3.56-3.44,7.13-6.92,11.05-9.93,6.13-4.71,11.64-10.07,17.13-15.47,1.48-1.46,2.82-2.8,2.3-5.29-1.41-6.84.84-12.16,6.9-15.88,6.61-4.05,12.23-9.29,17.95-14.4,2.44-2.18,4.89-4.33,7.77-5.85,3.7-1.96,6.02-.5,6.1,3.93Zm-49.37,54.27c.27.4.55.79.82,1.19,5.51-2.66,10.8-6.07,16.59-7.8,9.57-2.86,10.58-10.76,13.12-19.08-12.98,6.21-20.04,17.95-30.53,25.69Z"/><path class="cls-1" d="m439.24,112.35c4.23-.64,10.16-1.38,16.03-2.46,3.73-.69,7.46-.95,11.21-1.16,2.28-.13,4.64-.41,5.7,2.22,1.04,2.56-.61,4.36-2.38,5.71-9.29,7.11-15.92,16.95-25.03,24.22-4.15,3.31-5.25,6.84-4.81,12.66.8,10.62,2.41,20.92,4.81,31.26,2.22,9.58,6.26,18.46,9.61,27.57,1.93,5.25.5,10.81,3.04,15.92,5.25,10.55,7.78,22.04,8.38,33.65.58,11.13,4.15,21.4,6.69,31.99.65,2.71,1.51,5.4-2.5,6.53-3.98,1.12-5.93-.64-6.66-4.19-2.68-13.07-4.25-26.42-8.25-39.16-7.89-25.15-14.57-50.64-21.83-75.96-1.26-4.38-3.56-8.49-5.63-12.59-2.27-4.5-3.88-9.17-4.15-14.18-.19-3.41-1.77-5.16-5.1-4.97-13.18.74-25.26-3.84-37.49-7.66-2.66-.83-6.31-.9-6.16-4.92.17-4.42,4.07-4.52,7.15-5.18,11.03-2.39,22.34-3.18,33.34-5.83,3.46-.83,5.77-1.66,6.53-5.79.91-4.96,8.15-8.17,17.49-7.7Zm.63,17.82c-13.92-1.57-26.22,3.68-39.16,5.92,7.2,1.37,14.38,2.16,21.57,2.8,2.14.19,4.42,1.48,6.45-.03,3.78-2.81,7.43-5.79,11.14-8.69Z"/><path class="cls-1" d="m614.81,108.75c5.48.82,12.25,1.77,19,2.86,2.54.41,5,.78,7.62.62,7.69-.46,12.74,2.9,15.46,10.2.91,2.43,2.83,2.6,4.82,3.12,10.95,2.86,22.28,3.57,33.32,5.96,1.83.4,3.68.77,5.45,1.38,1.98.68,3.04,2.19,2.89,4.34-.14,1.95-1.34,3.14-3.14,3.63-12.34,3.31-24.13,8.82-37.37,8.46-7.38-.2-7.6.16-8.52,7.51-.76,6.11-3.42,11.58-6.1,16.8-5.32,10.37-8.01,21.52-10.43,32.64-3.8,17.46-10.74,33.94-15.06,51.21-3.04,12.13-5.29,24.41-7.52,36.7-1.1,6.05-2.87,7.35-7.06,6.32-2.47-.61-3.48-1.95-3.09-4.42.05-.34.06-.69.18-1.01,6.31-17.01,6.4-35.22,10.16-52.72.95-4.43,3.18-8.29,4.6-12.5,3.09-9.15,3.34-19,7.42-27.97,5.77-12.69,8.7-26.22,10.18-40.08.49-4.55-.5-9.2,1.13-13.7.58-1.6-.98-2.89-2.13-3.85-9.6-8.01-17.1-18.17-26.77-26.13-2.16-1.78-5.26-3.57-4-7.04,1.37-3.77,4.88-2.1,8.94-2.33Zm62.31,27.97c.06-.43.13-.86.19-1.29-13.01-1.4-25.3-7.2-40.04-6.05,4.24,3.39,7.55,6,10.82,8.66,1.4,1.15,2.86,1.56,4.71,1.34,8.1-.96,16.21-1.79,24.32-2.66Z"/><path class="cls-1" d="m963.03,423.61c.11,3.07-.21,5.78-2.82,7.53-2.78,1.87-2.66,4.15-1.87,7.15,2.85,10.78,7.35,21,10.54,31.65.15.49.41.95.53,1.45.73,3.12,2.39,6.85-.97,8.95-3.69,2.31-5.7-1.44-7.95-3.66-2.19-2.16-4.35-4.37-6.73-6.31-7.6-6.2-12.25-14.66-17.45-22.68-1.87-2.88-3.76-3.55-6.76-1.91-5.78,3.16-12.33,3.15-18.54,3.37-13.02.45-25.32,4.04-37.7,7.29-10.78,2.84-21.69,4.91-32.66,6.8-16.58,2.86-32.57,7.97-48.49,13.32-2.43.82-4.84,1.62-7.48,1.65-3.18.03-4.01-2.1-4.57-4.55-.61-2.64.96-3.76,3.17-4.37,1.15-.32,2.32-.61,3.48-.89,10.3-2.44,20.55-4.74,30.29-9.34,9.43-4.45,19.62-6.72,30.1-8.15,10.04-1.37,19.47-6.05,29.77-6.78,13.63-.97,26.51-4.91,39.04-10.19,3.74-1.58,6.9-4.41,11.27-4.72,1.98-.14,2.23-2.42,2.68-4.02,3.48-12.34,6.89-24.69,10.32-37.04.23-.82.37-1.67.65-2.48.64-1.85,1.54-3.54,3.75-3.75,2.25-.21,3.26,1.38,4.28,3.06,3.07,5.05,4.1,10.87,6.3,16.25,1.94,4.74,3.19,9.73,5.86,14.2,1.5,2.5,2.13,5.41,1.94,8.17Zm-19.39-5.42c-2.06,9.04-5.06,17.75,2.98,25.73,3.57,3.54,5.49,8.62,9.61,11.98-3.94-12.48-5.45-25.63-12.59-37.71Z"/><path class="cls-1" d="m107.8,474.26c1.28-3.98,2.64-9.31,4.72-14.34,3.03-7.31,4.9-14.96,7.37-22.43.7-2.11.9-4.06-1.12-5.54-4.73-3.46-5-8.59-3.03-12.96,4.86-10.77,7.98-22.19,12.85-32.93.92-2.03,1.87-4.32,4.63-4.14,2.99.19,3.9,2.69,4.28,5.06,1.83,11.2,6.97,21.48,9,32.61,1.02,5.62,3.31,8.9,9.38,11.48,9.64,4.11,19.31,7.68,29.37,10.49,8.97,2.5,18.22,3.01,27.34,4.26,6.54.9,11.86,5.24,18.57,5.38,10.1.21,19.7,3.22,28.68,7.38,10.37,4.81,21.23,7.47,32.22,10.02,2.97.69,7.02.69,5.64,5.85-1.31,4.92-4.96,4.17-8.22,3.17-12.27-3.76-24.29-8.53-36.89-11-25.36-4.98-50.47-11.07-75.69-16.65-4.95-1.1-10.18-1.03-15.29-1.31-4.67-.25-9.23-.9-13.42-3.03-2.87-1.46-4.81-.9-6.31,1.91-6.3,11.8-15.51,21.17-25.2,30.15-.5.46-.92,1.02-1.44,1.46-1.62,1.36-3.35,2.59-5.55,1.42-2.01-1.06-1.89-3.07-1.89-6.31Zm26.73-56.39c-7.1,12.39-8.9,25.55-12.56,38.23,5.35-6.52,10.08-13.33,14.7-20.23.5-.75.61-1.99.47-2.93-.76-4.87-1.67-9.71-2.61-15.08Z"/><path class="cls-1" d="m508.15,494.29c-1.69,2.87-.9,5.32-1.1,7.64-.2,2.33-1.21,3.97-3.6,4.33-2.93.44-2.74-2.05-3.06-3.73-1.12-5.81-1.36-11.6,1.51-17.04,2.22-4.22,7.23-7.02,10.5-5.57,4.28,1.9,4.87,5.88,4.5,9.98-.7,7.83-2.04,15.62-1.62,23.53.22,4.11.71,8.16,4.68,11.36.79-2.27-.3-3.89-.79-5.49-3.4-11.27-2.07-22.07,3.53-32.27,3.6-6.56,8.28-8.8,14.73-7.84,7.71,1.15,12.59,5.11,14.1,12.23,1.27,6.01,1.87,12.17,2.86,18.24,1.19,7.27,4.06,9.47,12.05,9.45,7.9-.02,11.07-2.38,12.16-9.54.46-3.02.41-6.15.38-9.22-.09-7.93-.73-8.74-7.73-10.14-6.65-1.33-10.21-6.95-9.86-13.72.22-4.09,1.75-7.34,5.84-8.81,4.04-1.45,7.81-.4,10.09,2.96,3.56,5.25,6.37,9.8,12.91,2.97,2.24-2.34,5.5.16,4.85,3.65-.84,4.51-2.98,8.56-6.9,11.03-3.15,1.98-3.63,4.22-3.25,7.69.86,7.88.39,15.77-2.44,23.28-3.46,9.17-10.09,13.46-19.85,13.17-7.01-.21-11.59-4.48-12.5-11.85-.76-6.11-1.1-12.27-2.09-18.34-1.08-6.63-4.42-9.41-10.63-9.72-7.85-.4-11.93,1.95-13.78,8.64-2.43,8.79-1.61,17.24,3.42,25.14.98,1.54,3.38,3.4,1.4,5.34-1.76,1.72-4.22,2.93-7.03,2.35-4.4-.91-7.87-2.97-10.16-7.07-4.46-8.01-3.56-16.53-2.74-25.07.22-2.32,1.12-4.64-.4-7.57Z"/><path class="cls-1" d="m419.82,385.52c-4.21.15-8.01-2.96-8.6-7.24-.64-4.68,2.29-6.46,6.25-7.1,8.04-1.3,13.25-7.36,19.76-11.28,9.32-5.63,18.41-12.43,30.39-11.45,2.66.22,5.4-.75,8.12-.94,1.96-.14,4.49-.66,5,2.18.48,2.65-1.62,3.69-3.73,3.98-15.87,2.14-28.04,12.19-41.6,19.29-3.15,1.65-5.05,4.52-7.23,7.15-2.2,2.65-4.57,5.16-8.36,5.41Z"/><path class="cls-1" d="m333.73,510.47c1.81-11.81,2.03-24.11,11.22-33.58,1.95-2.02,2.87-5.01,4.47-7.41,1.03-1.54,2.43-3.33,4.59-2.13,2.28,1.27,1.88,3.5.85,5.41-2.36,4.37-4.78,8.75-6.06,13.54-3.01,11.22-4.43,22.77-6.17,34.22-.49,3.21.97,6.69,1.39,10.07.7,5.58-2.43,9.74-7.54,10.2-6.22.56-9.65-3.86-6.83-9.42,3.38-6.64,3.99-13.67,4.09-20.9Z"/><path class="cls-1" d="m594.22,337.65c1.79.04,3.2.63,4.31,1.79,4.97,5.16,11.52,6.96,18.08,9.07,11.82,3.79,23.55,7.88,30.94,19.09,1.66,2.51,4.34,4.33,6.47,6.55,1.11,1.16,1.92,2.65.76,4.14-1.25,1.61-3,1.33-4.67.59-.31-.14-.64-.3-.87-.54-8.38-8.83-19.39-13.09-30.2-17.93-7.57-3.39-14.95-6.26-23.37-6.77-7.17-.44-10.14-7.31-6.41-13.15,1.24-1.95,2.97-2.72,4.96-2.85Z"/><path class="cls-1" d="m360.54,453.36c-3.55-.12-6.51-1.77-7.72-5.36-1.07-3.17.63-5.58,3.33-7.33,5.24-3.39,8.09-8.59,10.89-13.95,6.1-11.67,12.68-22.95,25.9-28.2,2.31-.92,4.14-2.99,6.3-4.35,1.71-1.08,3.82-2.51,5.44-.22,1.47,2.07.06,3.91-1.62,5.31-4.85,4.04-10.21,7.56-13.93,12.81-5.43,7.67-10.77,15.42-16.13,23.14-2.41,3.47-2.84,7.66-4.1,11.54-1.29,3.98-3.73,6.46-8.36,6.61Z"/><path class="cls-1" d="m502.39,339.01c-.08-5.66,2.6-8.08,8.05-6.46,6.67,1.99,13.04.78,19.69-.05,12.21-1.53,24.64-3.59,36.15,3.56,2.25,1.4,5.16,1.71,7.72,2.65,1.99.73,4.04,1.76,3.3,4.36-.75,2.63-2.96,2.4-5.07,1.84-6.6-1.75-13.18-3.71-20.11-3.45-8.52.31-17.04.75-25.55,1.13-4.21.19-7.8,2.36-11.68,3.62-7.3,2.37-12.41-.64-12.5-7.19Z"/><path class="cls-1" d="m672.59,388.57c3.64,0,5.6,1.77,6.58,4.58,2.25,6.42,7.14,10.59,11.95,14.99,9.19,8.42,18.03,17.14,20.13,30.38.42,2.64,2,5.08,2.74,7.7.55,1.92,1.28,4.45-1.04,5.52-2.81,1.29-4.07-1.23-4.79-3.28-5.23-14.94-17.43-24.72-26.79-36.59-3.22-4.08-8.29-5.3-12.23-8.27-3.35-2.53-4.02-5.92-2.9-9.62.96-3.2,3.43-4.98,6.35-5.39Z"/><path class="cls-1" d="m729.79,526.15c-2.22-15.33-4-30.77-12.73-44.21-2-3.08-2.72-6.22-.83-9.62,1.48-2.67,3.7-3.8,6.75-3.72,3.78.11,5.87,1.96,5.73,5.68-.28,7.21,2.26,13.58,4.76,20.18,3.99,10.55,6.47,21.47,3.3,32.89-.67,2.43-.56,5.07-.89,7.61-.23,1.79-.86,3.5-3.04,3.44-2.11-.06-2.89-1.77-2.99-3.55-.17-2.89-.04-5.8-.04-8.7Z"/><path class="cls-1" d="m609.5,405c6.51.07,10.54,2.38,11.86,7.02,1.55,5.46-.79,9.26-5.39,12.03-.58.35-1.16.75-1.63,1.23-5.73,6-9.81,5.27-13.43-2.43-3.91-8.32.72-17.93,8.58-17.85Z"/><path class="cls-1" d="m468.06,423.69c-8.8.08-14.7-5.79-13.95-13.87.43-4.58,6.7-9.95,11.49-9.84,5.13.12,8.84,4,9.25,9.66.13,1.86.13,3.75.45,5.58,1.06,6.1-.88,8.42-7.24,8.48Z"/><path class="cls-1" d="m667.12,456.12c.19,4.1-1.92,6.88-5.88,8.33-2.86,1.05-5.85,1.68-8.68,2.95-2.84,1.28-5.47.17-6.72-2.83-2.31-5.55-2.36-10.96,1.7-15.86,2.81-3.4,6.35-5.39,10.77-4.01,5.83,1.83,8.87,5.97,8.8,11.42Z"/><path class="cls-1" d="m419.82,464.82c-5.55-.02-10.09-2.78-11.66-7.45-1.67-4.96.73-9.08,3.77-12.54,2.72-3.09,6.73-3.71,10.3-1.67,5.3,3.02,7.2,8.8,9.29,14,1.15,2.85-1.64,4.88-4.29,6.07-2.35,1.05-4.8,1.73-7.42,1.6Z"/><path class="cls-1" d="m381.13,513.27c-.44-3.67.85-7.05,4.84-8.79,3.88-1.69,7.68-1.34,11.1,1.38,1.07.85,2.05,1.84,3.22,2.52,6.33,3.72,6.77,7.02,1.73,12.32-2.87,3.03-6.22,4.67-10.44,4.61-6.95-.09-10.45-3.92-10.44-12.05Z"/><path class="cls-1" d="m525,389.95c.22-2.76.97-6.24,5.15-7.5,4.77-1.44,9.6-3.08,13.7,1.59,3.12,3.55,3.07,7.36,1.05,11.37-.84,1.66-1.81,3.19-2.16,5.12-.81,4.47-3.29,5.86-7.67,4.63-6.2-1.73-10.3-7.53-10.06-15.21Z"/><path class="cls-1" d="m681.24,503.56c5.82.03,10.55,5.41,10.5,11.95-.04,5.47-3.78,8.94-9.59,8.93-11.29-.03-14.25-1.53-14.3-7.21-.06-7.83,5.7-13.7,13.39-13.67Z"/></svg>